<?xml version="1.0" encoding="utf-8"?>
<!-- Generator: Adobe Illustrator 24.3.0, SVG Export Plug-In . SVG Version: 6.00 Build 0)  -->
<svg version="1.1" id="Layer_1" xmlns="http://www.w3.org/2000/svg" xmlns:xlink="http://www.w3.org/1999/xlink" x="0px" y="0px"
	 viewBox="0 0 1328.4 638" style="enable-background:new 0 0 1328.4 638;" xml:space="preserve">
<style type="text/css">
	.st0{fill:#FFFFFF;}
</style>
<path class="st0" d="M29.9,297.1V159.4h37.4v104.3h61v33.4H29.9z"/>
<path class="st0" d="M255.9,265.6v31.5H147.7V159.4h106.2v31.5h-68.8v21.6h53.1V242h-53.1v23.5h70.8V265.6z"/>
<path class="st0" d="M313.8,267.6l-9.8,29.5h-40.3l52.1-137.7h41.3l52.1,137.7h-40.3l-9.9-29.5H313.8z M336.5,197.8l-12.8,40.3h25.5
	L336.5,197.8z"/>
<path class="st0" d="M477.9,159.4c21,0,38.4,6.6,52.1,19.9c13.8,13.2,20.6,29.6,20.6,49s-6.9,35.7-20.7,49
	c-13.8,13.2-31.2,19.9-52.1,19.9h-53.1V159.4H477.9z M462.2,192.9v70.8h15.7c9.6,0,17.9-3.4,24.9-10.1c7-6.8,10.5-15.2,10.5-25.3
	c0-10.4-3.3-18.8-9.9-25.4c-6.6-6.6-15.1-9.9-25.4-9.9h-15.8V192.9z"/>
<path class="st0" d="M682.3,265.6v31.5H574.2V159.4h106.2v31.5h-68.8v21.6h53.1V242h-53.1v23.5h70.7V265.6z"/>
<path class="st0" d="M705.8,159.4h64.9c14.5,0,26.5,4.5,36,13.6s14.2,20.3,14.2,33.7c0,5.5-0.8,10.6-2.4,15.4s-3.6,8.6-5.9,11.6
	c-2.3,3-4.6,5.5-6.9,7.6c-2.3,2.1-4.2,3.5-5.8,4.3l-2.6,1.4l28.5,50.1h-39.3l-23.6-43.3h-19.7v43.3h-37.4V159.4z M779.4,196.8
	c-2.8-2.6-6.3-3.9-10.7-3.9h-25.5v27.5h25.5c4.4,0,7.9-1.3,10.7-3.9c2.8-2.6,4.1-5.9,4.1-9.8C783.5,202.6,782.1,199.4,779.4,196.8z"
	/>
<path class="st0" d="M900.8,248.3c-2.4-1.9-5.4-3.4-9.2-4.6c-3.7-1.2-7.9-2.5-12.5-3.9s-9.1-3.1-13.6-5.2s-8.6-4.6-12.4-7.6
	c-3.7-2.9-6.8-6.9-9.2-11.9s-3.6-10.8-3.6-17.3c0-11.3,4.9-21.1,14.6-29.6c9.8-8.5,22.3-12.7,37.5-12.7c6.3,0,12.2,0.7,17.8,2.1
	c5.6,1.4,10.1,3,13.7,4.9c3.6,1.9,6.7,3.8,9.4,5.7s4.5,3.6,5.6,5l1.8,1.9L919,197.8c-0.6-0.8-1.6-1.7-2.8-2.9s-3.8-2.8-7.8-4.8
	c-3.9-2-7.9-3.1-12-3.1c-4.2,0-7.7,1.2-10.6,3.6c-2.8,2.4-4.2,5.1-4.2,8.3c0,2.5,1.2,4.7,3.6,6.5c2.4,1.8,5.4,3.4,9.2,4.6
	c3.7,1.2,7.9,2.6,12.4,3.9c4.5,1.4,9.1,3.1,13.6,5.2c4.6,2.1,8.7,4.6,12.5,7.6c3.7,2.9,6.8,6.9,9.2,11.9s3.6,10.8,3.6,17.3
	c0,12.7-5,23.5-15.1,32.2c-10.1,8.7-23.4,13.1-40,13.1c-6.8,0-13.3-0.8-19.6-2.4s-11.5-3.6-15.6-5.9s-7.7-4.6-10.8-6.9
	s-5.4-4.3-6.9-6l-2.1-2.4l21.6-22.6c0.3,0.4,0.7,0.9,1.4,1.5s2,1.8,3.9,3.6c2,1.7,4,3.2,6.2,4.6c2.2,1.3,4.9,2.5,8.2,3.5
	s6.5,1.5,9.8,1.5c5.2,0,9.5-1.4,12.8-4.3s4.9-6.3,4.9-10.4C904.3,252.3,903.2,250.1,900.8,248.3z"/>
<path class="st0" d="M1092,297.1h-37.4V244h-50.1v53.1h-37.4V159.4h37.4v51.2h50.1v-51.2h37.4V297.1z"/>
<path class="st0" d="M1123.4,159.4h37.4v137.7h-37.4V159.4z"/>
<path class="st0" d="M1254.1,159.4c15.1,0,27.4,4.6,36.9,13.7c9.5,9.1,14.2,20.6,14.2,34.5s-4.8,25.4-14.3,34.5
	s-21.8,13.7-36.8,13.7h-24.6v41.3h-37.4V159.4H1254.1z M1229.5,192.9v29.5h22.6c4.4,0,8.1-1.5,11.1-4.4c3.1-2.9,4.6-6.4,4.6-10.3
	c0-3.9-1.5-7.4-4.6-10.3c-3.1-2.9-6.8-4.4-11.1-4.4h-22.6V192.9z"/>
<g>
	<path class="st0" d="M100.3,418.9c-2.6-3.1-5.9-5.6-10-7.3c-4.1-1.7-8.7-3.3-13.7-4.7c-5-1.4-10-3-15-4.7s-9.5-3.8-13.7-6.3
		c-4.1-2.5-7.5-5.9-10-10.5c-2.6-4.5-3.9-9.9-3.9-16.1c0-9.7,3.8-18,11.4-24.8s17.7-10.2,30.1-10.2c4.7,0,9.1,0.6,13.4,1.8
		c4.2,1.2,7.8,2.6,10.6,4.1s5.3,3.2,7.6,4.8c2.2,1.6,3.8,3,4.8,4.1l1.5,1.8l-9.3,9.3c-0.2-0.4-0.6-0.8-1.1-1.4s-1.6-1.6-3.4-3.1
		s-3.7-2.8-5.7-4s-4.7-2.2-8-3.2c-3.3-0.9-6.8-1.4-10.3-1.4c-8.5,0-15.2,2.2-20.2,6.5s-7.5,9.6-7.5,15.7c0,4.4,1.3,8.2,3.9,11.4
		c2.6,3.1,5.9,5.6,10.1,7.3c4.1,1.7,8.7,3.3,13.7,4.7c5,1.4,10,3,14.9,4.7c5,1.7,9.5,3.8,13.7,6.3s7.5,5.9,10.1,10.4
		s3.9,9.9,3.9,16.2c0,10.9-3.8,19.8-11.5,26.6c-7.7,6.8-18.3,10.2-31.9,10.2c-5.5,0-10.8-0.7-15.8-2c-5-1.4-9.1-2.9-12.3-4.8
		c-3.2-1.8-6-3.7-8.5-5.6s-4.2-3.5-5.1-4.9l-1.7-2.1l8.5-9.4c0.2,0.4,0.7,0.9,1.3,1.7c0.6,0.8,2,2,4.1,3.9c2.1,1.8,4.4,3.4,6.8,4.8
		c2.4,1.4,5.7,2.6,9.9,3.8c4.1,1.2,8.4,1.8,12.8,1.8c9.5,0,16.8-2.2,21.9-6.6c5.1-4.4,7.7-10.2,7.7-17.4
		C104.2,425.8,102.9,422,100.3,418.9z"/>
	<path class="st0" d="M280.4,447.8c-12.9,12.9-28.6,19.4-47.1,19.4c-18.4,0-34.1-6.5-47.1-19.4c-12.9-12.9-19.4-28.6-19.4-47.1
		s6.5-34.1,19.4-47.1c12.9-12.9,28.6-19.4,47.1-19.4c18.4,0,34.1,6.5,47.1,19.4c12.9,12.9,19.4,28.6,19.4,47.1
		S293.3,434.8,280.4,447.8z M196,438.8c10.2,10.3,22.6,15.4,37.4,15.4c14.8,0,27.3-5.1,37.4-15.4c10.2-10.3,15.2-23,15.2-38.1
		s-5.1-27.9-15.2-38.1c-10.2-10.3-22.6-15.4-37.4-15.4c-14.8,0-27.3,5.1-37.4,15.4c-10.2,10.3-15.2,23-15.2,38.1
		C180.7,415.8,185.8,428.6,196,438.8z"/>
	<path class="st0" d="M358.9,465.3V336.1h13.9v116.4h66.4v12.9h-80.3V465.3z"/>
	<path class="st0" d="M561.6,442.7c7.6-7.7,11.4-17.1,11.4-28.1v-78.5h13.9v78.5c0,14.3-5.2,26.6-15.6,37
		c-10.4,10.4-22.7,15.5-37,15.5s-26.6-5.2-37-15.6s-15.6-22.7-15.6-37V336h13.8v78.5c0,11.1,3.8,20.4,11.4,28.1
		c7.6,7.7,16.7,11.5,27.4,11.5C544.8,454.2,554,450.4,561.6,442.7z"/>
	<path class="st0" d="M731.7,336.1v13H691v116.3h-13.8V349.1h-40.7v-13H731.7z"/>
	<path class="st0" d="M783.3,336.1h13.9v129.3h-13.9V336.1z"/>
	<path class="st0" d="M969.6,447.8c-12.9,12.9-28.6,19.4-47.1,19.4c-18.4,0-34.1-6.5-47.1-19.4c-12.9-12.9-19.4-28.6-19.4-47.1
		s6.5-34.1,19.4-47.1c12.9-12.9,28.6-19.4,47.1-19.4c18.4,0,34.1,6.5,47.1,19.4c12.9,12.9,19.4,28.6,19.4,47.1
		S982.6,434.8,969.6,447.8z M885.2,438.8c10.2,10.3,22.6,15.4,37.4,15.4c14.8,0,27.3-5.1,37.4-15.4c10.2-10.3,15.2-23,15.2-38.1
		s-5.1-27.9-15.2-38.1c-10.2-10.3-22.6-15.4-37.4-15.4c-14.8,0-27.3,5.1-37.4,15.4c-10.2,10.3-15.2,23-15.2,38.1
		C869.9,415.8,875,428.6,885.2,438.8z"/>
	<path class="st0" d="M1153.3,336.1v129.3h-12L1062,361v104.3h-13.9V336.1h12l79.4,104.4V336.1H1153.3z"/>
	<path class="st0" d="M1278.6,418.9c-2.6-3.1-5.9-5.6-10-7.3c-4.1-1.7-8.7-3.3-13.7-4.7c-5-1.4-10-3-15-4.7s-9.5-3.8-13.7-6.3
		c-4.1-2.5-7.5-5.9-10.1-10.5c-2.6-4.5-3.9-9.9-3.9-16.1c0-9.7,3.8-18,11.4-24.8s17.7-10.2,30.1-10.2c4.7,0,9.1,0.6,13.4,1.8
		s7.8,2.6,10.6,4.1c2.8,1.6,5.3,3.2,7.6,4.8c2.2,1.6,3.8,3,4.8,4.1l1.5,1.8l-9.3,9.3c-0.2-0.4-0.6-0.8-1.1-1.4s-1.6-1.6-3.4-3.1
		s-3.7-2.8-5.7-4s-4.7-2.2-8-3.2c-3.3-0.9-6.8-1.4-10.3-1.4c-8.5,0-15.2,2.2-20.2,6.5s-7.5,9.6-7.5,15.7c0,4.4,1.3,8.2,3.9,11.4
		c2.6,3.1,5.9,5.6,10.1,7.3c4.1,1.7,8.7,3.3,13.7,4.7c5,1.4,10,3,14.9,4.7c5,1.7,9.5,3.8,13.7,6.3c4.1,2.5,7.5,5.9,10.1,10.4
		s3.9,9.9,3.9,16.2c0,10.9-3.8,19.8-11.5,26.6c-7.7,6.8-18.3,10.2-31.9,10.2c-5.5,0-10.8-0.7-15.8-2c-5-1.4-9.1-2.9-12.3-4.8
		c-3.2-1.8-6-3.7-8.5-5.6s-4.2-3.5-5.1-4.9l-1.7-2.1l8.5-9.4c0.2,0.4,0.7,0.9,1.3,1.7c0.6,0.8,2,2,4.1,3.9c2.1,1.8,4.4,3.4,6.8,4.8
		s5.7,2.6,9.9,3.8c4.1,1.2,8.4,1.8,12.8,1.8c9.5,0,16.8-2.2,21.9-6.6s7.7-10.2,7.7-17.4C1282.5,425.8,1281.2,422,1278.6,418.9z"/>
</g>
</svg>
